<svg width="780" height="202" viewBox="0 0 780 202" fill="none" xmlns="http://www.w3.org/2000/svg">
<path d="M5.42472 136V66.1818H22.2997V95.7045H23.2202L46.2997 66.1818H66.1747L41.4247 97.3409L66.6179 136H46.4361L29.0497 108.557L22.2997 117.08V136H5.42472ZM72.831 136V66.1818H121.513V79.8864H89.706V94.2045H119.024V107.943H89.706V122.295H121.513V136H72.831ZM132.081 136V66.1818H148.956V122.295H178.001V136H132.081ZM224.476 87.1136C224.249 84.6136 223.237 82.6705 221.442 81.2841C219.669 79.875 217.135 79.1705 213.839 79.1705C211.658 79.1705 209.839 79.4545 208.385 80.0227C206.93 80.5909 205.839 81.375 205.112 82.375C204.385 83.3523 204.01 84.4773 203.987 85.75C203.942 86.7955 204.146 87.7159 204.601 88.5114C205.078 89.3068 205.76 90.0114 206.646 90.625C207.555 91.2159 208.646 91.7386 209.919 92.1932C211.192 92.6477 212.624 93.0455 214.214 93.3864L220.214 94.75C223.669 95.5 226.714 96.5 229.351 97.75C232.01 99 234.237 100.489 236.033 102.216C237.851 103.943 239.226 105.932 240.158 108.182C241.089 110.432 241.567 112.955 241.589 115.75C241.567 120.159 240.453 123.943 238.249 127.102C236.044 130.261 232.874 132.682 228.737 134.364C224.624 136.045 219.658 136.886 213.839 136.886C207.999 136.886 202.908 136.011 198.567 134.261C194.226 132.511 190.851 129.852 188.442 126.284C186.033 122.716 184.794 118.205 184.726 112.75H200.885C201.021 115 201.624 116.875 202.692 118.375C203.76 119.875 205.226 121.011 207.089 121.784C208.976 122.557 211.158 122.943 213.635 122.943C215.908 122.943 217.839 122.636 219.43 122.023C221.044 121.409 222.283 120.557 223.146 119.466C224.01 118.375 224.453 117.125 224.476 115.716C224.453 114.398 224.044 113.273 223.249 112.341C222.453 111.386 221.226 110.568 219.567 109.886C217.93 109.182 215.839 108.534 213.294 107.943L205.999 106.239C199.953 104.852 195.192 102.614 191.714 99.5227C188.237 96.4091 186.51 92.2045 186.533 86.9091C186.51 82.5909 187.669 78.8068 190.01 75.5568C192.351 72.3068 195.589 69.7727 199.726 67.9545C203.862 66.1364 208.578 65.2273 213.874 65.2273C219.283 65.2273 223.976 66.1477 227.953 67.9886C231.953 69.8068 235.055 72.3636 237.26 75.6591C239.464 78.9545 240.589 82.7727 240.635 87.1136H224.476ZM266.987 66.1818V136H250.112V66.1818H266.987ZM277.581 136V66.1818H326.263V79.8864H294.456V94.2045H323.774V107.943H294.456V122.295H326.263V136H277.581ZM357.456 66.1818H378.354L396.081 109.409H396.899L414.626 66.1818H435.524V136H419.092V93.1136H418.513L401.74 135.557H391.24L374.467 92.875H373.888V136H357.456V66.1818ZM488.288 66.1818H505.129V111.216C505.129 116.42 503.891 120.955 501.413 124.818C498.936 128.659 495.482 131.636 491.05 133.75C486.618 135.841 481.47 136.886 475.607 136.886C469.675 136.886 464.493 135.841 460.061 133.75C455.629 131.636 452.186 128.659 449.732 124.818C447.277 120.955 446.05 116.42 446.05 111.216V66.1818H462.925V109.75C462.925 112.159 463.447 114.307 464.493 116.193C465.561 118.08 467.05 119.557 468.959 120.625C470.868 121.693 473.084 122.227 475.607 122.227C478.129 122.227 480.334 121.693 482.22 120.625C484.129 119.557 485.618 118.08 486.686 116.193C487.754 114.307 488.288 112.159 488.288 109.75V66.1818ZM515.706 136V66.1818H544.547C549.774 66.1818 554.286 67.125 558.081 69.0114C561.899 70.875 564.842 73.5568 566.911 77.0568C568.979 80.5341 570.013 84.6591 570.013 89.4318C570.013 94.2727 568.956 98.3864 566.842 101.773C564.729 105.136 561.729 107.705 557.842 109.477C553.956 111.227 549.354 112.102 544.036 112.102H525.797V98.8068H540.899C543.445 98.8068 545.57 98.4773 547.274 97.8182C549.001 97.1364 550.308 96.1136 551.195 94.75C552.081 93.3636 552.524 91.5909 552.524 89.4318C552.524 87.2727 552.081 85.4886 551.195 84.0795C550.308 82.6477 549.001 81.5795 547.274 80.875C545.547 80.1477 543.422 79.7841 540.899 79.7841H532.581V136H515.706ZM555.013 104.091L572.399 136H553.99L536.945 104.091H555.013ZM579.268 136V66.1818H608.109C613.337 66.1818 617.848 67.2045 621.643 69.25C625.462 71.2727 628.405 74.1023 630.473 77.7386C632.541 81.3523 633.575 85.5568 633.575 90.3523C633.575 95.1705 632.518 99.3864 630.405 103C628.314 106.591 625.325 109.375 621.439 111.352C617.553 113.33 612.939 114.318 607.598 114.318H589.803V101.023H604.462C607.007 101.023 609.132 100.58 610.837 99.6932C612.564 98.8068 613.871 97.5682 614.757 95.9773C615.643 94.3636 616.087 92.4886 616.087 90.3523C616.087 88.1932 615.643 86.3295 614.757 84.7614C613.871 83.1705 612.564 81.9432 610.837 81.0795C609.109 80.2159 606.984 79.7841 604.462 79.7841H596.143V136H579.268ZM641.893 136V66.1818H658.768V94.2045H686.28V66.1818H703.121V136H686.28V107.943H658.768V136H641.893ZM710.229 66.1818H729.081L743.842 95.3977H744.456L759.217 66.1818H778.07L752.536 112.682V136H735.763V112.682L710.229 66.1818ZM212.982 177.705C212.906 176.871 212.569 176.223 211.97 175.761C211.379 175.292 210.535 175.057 209.436 175.057C208.709 175.057 208.103 175.152 207.618 175.341C207.133 175.53 206.769 175.792 206.527 176.125C206.285 176.451 206.16 176.826 206.152 177.25C206.137 177.598 206.205 177.905 206.357 178.17C206.516 178.436 206.743 178.67 207.038 178.875C207.341 179.072 207.705 179.246 208.129 179.398C208.554 179.549 209.031 179.682 209.561 179.795L211.561 180.25C212.713 180.5 213.728 180.833 214.607 181.25C215.493 181.667 216.235 182.163 216.834 182.739C217.44 183.314 217.898 183.977 218.209 184.727C218.519 185.477 218.679 186.318 218.686 187.25C218.679 188.72 218.307 189.981 217.572 191.034C216.838 192.087 215.781 192.894 214.402 193.455C213.031 194.015 211.375 194.295 209.436 194.295C207.489 194.295 205.792 194.004 204.345 193.42C202.898 192.837 201.773 191.951 200.97 190.761C200.167 189.572 199.754 188.068 199.732 186.25H205.118C205.163 187 205.364 187.625 205.72 188.125C206.076 188.625 206.565 189.004 207.186 189.261C207.815 189.519 208.542 189.648 209.368 189.648C210.125 189.648 210.769 189.545 211.3 189.341C211.838 189.136 212.25 188.852 212.538 188.489C212.826 188.125 212.974 187.708 212.982 187.239C212.974 186.799 212.838 186.424 212.572 186.114C212.307 185.795 211.898 185.523 211.345 185.295C210.8 185.061 210.103 184.845 209.254 184.648L206.822 184.08C204.807 183.617 203.22 182.871 202.061 181.841C200.902 180.803 200.326 179.402 200.334 177.636C200.326 176.197 200.713 174.936 201.493 173.852C202.273 172.769 203.353 171.924 204.732 171.318C206.11 170.712 207.682 170.409 209.447 170.409C211.25 170.409 212.815 170.716 214.141 171.33C215.474 171.936 216.508 172.788 217.243 173.886C217.978 174.985 218.353 176.258 218.368 177.705H212.982ZM243.493 182.364C243.493 184.924 243 187.095 242.016 188.875C241.031 190.655 239.697 192.008 238.016 192.932C236.341 193.856 234.463 194.318 232.379 194.318C230.288 194.318 228.406 193.852 226.732 192.92C225.057 191.989 223.728 190.636 222.743 188.864C221.766 187.083 221.277 184.917 221.277 182.364C221.277 179.803 221.766 177.633 222.743 175.852C223.728 174.072 225.057 172.72 226.732 171.795C228.406 170.871 230.288 170.409 232.379 170.409C234.463 170.409 236.341 170.871 238.016 171.795C239.697 172.72 241.031 174.072 242.016 175.852C243 177.633 243.493 179.803 243.493 182.364ZM237.743 182.364C237.743 180.848 237.527 179.568 237.095 178.523C236.671 177.477 236.057 176.686 235.254 176.148C234.459 175.61 233.5 175.341 232.379 175.341C231.266 175.341 230.307 175.61 229.504 176.148C228.701 176.686 228.084 177.477 227.652 178.523C227.228 179.568 227.016 180.848 227.016 182.364C227.016 183.879 227.228 185.159 227.652 186.205C228.084 187.25 228.701 188.042 229.504 188.58C230.307 189.117 231.266 189.386 232.379 189.386C233.5 189.386 234.459 189.117 235.254 188.58C236.057 188.042 236.671 187.25 237.095 186.205C237.527 185.159 237.743 183.879 237.743 182.364ZM246.777 194V170.727H262.663V175.295H252.402V180.068H261.652V184.648H252.402V194H246.777ZM264.734 175.295V170.727H284.405V175.295H277.348V194H271.803V175.295H264.734ZM292.732 194L285.959 170.727H292.175L295.686 185.977H295.879L299.891 170.727H304.959L308.97 186.011H309.163L312.686 170.727H318.891L312.129 194H306.709L302.516 179.886H302.334L298.141 194H292.732ZM323.717 194H317.672L325.524 170.727H333.013L340.865 194H334.82L329.354 176.591H329.172L323.717 194ZM322.911 184.841H335.547V189.114H322.911V184.841ZM343.371 194V170.727H352.984C354.727 170.727 356.231 171.042 357.496 171.67C358.768 172.292 359.75 173.186 360.439 174.352C361.128 175.511 361.473 176.886 361.473 178.477C361.473 180.091 361.121 181.462 360.416 182.591C359.712 183.712 358.712 184.568 357.416 185.159C356.121 185.742 354.587 186.034 352.814 186.034H346.734V181.602H351.768C352.617 181.602 353.325 181.492 353.893 181.273C354.469 181.045 354.905 180.705 355.2 180.25C355.496 179.788 355.643 179.197 355.643 178.477C355.643 177.758 355.496 177.163 355.2 176.693C354.905 176.216 354.469 175.86 353.893 175.625C353.318 175.383 352.609 175.261 351.768 175.261H348.996V194H343.371ZM356.473 183.364L362.268 194H356.132L350.45 183.364H356.473ZM364.558 194V170.727H380.786V175.295H370.183V180.068H379.956V184.648H370.183V189.432H380.786V194H364.558ZM399.786 194H391.183V170.727H399.774C402.145 170.727 404.187 171.193 405.899 172.125C407.619 173.049 408.945 174.383 409.876 176.125C410.808 177.86 411.274 179.936 411.274 182.352C411.274 184.777 410.808 186.86 409.876 188.602C408.952 190.345 407.63 191.682 405.911 192.614C404.191 193.538 402.149 194 399.786 194ZM396.808 189.205H399.57C400.873 189.205 401.975 188.985 402.876 188.545C403.786 188.098 404.471 187.375 404.933 186.375C405.403 185.367 405.638 184.027 405.638 182.352C405.638 180.678 405.403 179.345 404.933 178.352C404.464 177.352 403.77 176.633 402.854 176.193C401.945 175.746 400.823 175.523 399.49 175.523H396.808V189.205ZM414.558 194V170.727H430.786V175.295H420.183V180.068H429.956V184.648H420.183V189.432H430.786V194H414.558ZM439.592 170.727L444.797 187.773H444.99L450.195 170.727H456.49L448.638 194H441.149L433.297 170.727H439.592ZM458.996 194V170.727H475.223V175.295H464.621V180.068H474.393V184.648H464.621V189.432H475.223V194H458.996ZM478.746 194V170.727H484.371V189.432H494.053V194H478.746ZM518.024 182.364C518.024 184.924 517.532 187.095 516.547 188.875C515.562 190.655 514.229 192.008 512.547 192.932C510.873 193.856 508.994 194.318 506.911 194.318C504.82 194.318 502.937 193.852 501.263 192.92C499.589 191.989 498.259 190.636 497.274 188.864C496.297 187.083 495.808 184.917 495.808 182.364C495.808 179.803 496.297 177.633 497.274 175.852C498.259 174.072 499.589 172.72 501.263 171.795C502.937 170.871 504.82 170.409 506.911 170.409C508.994 170.409 510.873 170.871 512.547 171.795C514.229 172.72 515.562 174.072 516.547 175.852C517.532 177.633 518.024 179.803 518.024 182.364ZM512.274 182.364C512.274 180.848 512.058 179.568 511.626 178.523C511.202 177.477 510.589 176.686 509.786 176.148C508.99 175.61 508.032 175.341 506.911 175.341C505.797 175.341 504.839 175.61 504.036 176.148C503.232 176.686 502.615 177.477 502.183 178.523C501.759 179.568 501.547 180.848 501.547 182.364C501.547 183.879 501.759 185.159 502.183 186.205C502.615 187.25 503.232 188.042 504.036 188.58C504.839 189.117 505.797 189.386 506.911 189.386C508.032 189.386 508.99 189.117 509.786 188.58C510.589 188.042 511.202 187.25 511.626 186.205C512.058 185.159 512.274 183.879 512.274 182.364ZM521.308 194V170.727H530.922C532.664 170.727 534.168 171.068 535.433 171.75C536.706 172.424 537.687 173.367 538.376 174.58C539.066 175.784 539.411 177.186 539.411 178.784C539.411 180.39 539.058 181.795 538.354 183C537.657 184.197 536.661 185.125 535.365 185.784C534.07 186.443 532.532 186.773 530.751 186.773H524.82V182.341H529.706C530.554 182.341 531.263 182.193 531.831 181.898C532.407 181.602 532.842 181.189 533.138 180.659C533.433 180.121 533.581 179.496 533.581 178.784C533.581 178.064 533.433 177.443 533.138 176.92C532.842 176.39 532.407 175.981 531.831 175.693C531.255 175.405 530.547 175.261 529.706 175.261H526.933V194H521.308ZM542.183 194V170.727H558.411V175.295H547.808V180.068H557.581V184.648H547.808V189.432H558.411V194H542.183ZM561.933 194V170.727H571.547C573.289 170.727 574.793 171.042 576.058 171.67C577.331 172.292 578.312 173.186 579.001 174.352C579.691 175.511 580.036 176.886 580.036 178.477C580.036 180.091 579.683 181.462 578.979 182.591C578.274 183.712 577.274 184.568 575.979 185.159C574.683 185.742 573.149 186.034 571.376 186.034H565.297V181.602H570.331C571.179 181.602 571.888 181.492 572.456 181.273C573.032 181.045 573.467 180.705 573.763 180.25C574.058 179.788 574.206 179.197 574.206 178.477C574.206 177.758 574.058 177.163 573.763 176.693C573.467 176.216 573.032 175.86 572.456 175.625C571.88 175.383 571.172 175.261 570.331 175.261H567.558V194H561.933ZM575.036 183.364L580.831 194H574.695L569.013 183.364H575.036Z" fill="black"/>
</svg>
