<svg width="160" height="160" viewBox="0 0 160 160" fill="none" xmlns="http://www.w3.org/2000/svg">
<path fill-rule="evenodd" clip-rule="evenodd" d="M79.9992 92.3293C80.2197 92.3155 80.4751 92.3039 80.7683 92.2954C80.6449 92.2895 80.5032 92.277 80.3544 92.2606C80.504 92.2334 80.6612 92.2065 80.8262 92.1803C80.6918 92.1784 80.5563 92.1717 80.4209 92.1608L80.5489 92.1536C80.8171 92.153 81.1153 92.1548 81.4459 92.1597C81.1178 92.1034 80.8326 92.0509 80.5872 92.002C80.8276 91.9654 81.1012 91.9276 81.4109 91.8874C81.1021 91.8808 80.8228 91.8726 80.57 91.863C80.9134 91.8588 81.3049 91.8587 81.7491 91.8622C81.1709 91.8016 80.6826 91.7429 80.285 91.6851C80.812 91.5974 81.3137 91.6157 81.9639 91.6088C81.2984 91.5135 80.8053 91.4295 80.4573 91.3534C80.6012 91.3505 80.7522 91.3479 80.9107 91.3455C80.7827 91.3278 80.6614 91.3102 80.5458 91.2932C81.0108 91.2403 81.5753 91.1894 82.1772 91.1328C81.2796 91.0702 80.5617 91.0075 80.019 90.9423C80.4708 90.8096 82.0028 90.6361 82.5784 90.5668C81.7794 90.5313 81.0783 90.4917 80.4385 90.435C80.7701 90.3924 81.1324 90.3484 81.5098 90.3016C80.8158 90.2734 80.2272 90.242 79.7421 90.2068C80.1615 90.1108 80.7108 90.0056 81.3885 89.8896C80.9613 89.9203 80.582 89.9443 80.2477 89.9616C80.4495 89.8849 80.6806 89.8056 80.9426 89.7229C81.0942 89.6841 81.2582 89.6431 81.4356 89.6001C81.0276 89.6318 80.5456 89.6658 80.1076 89.6867C80.5065 89.5851 81.0208 89.4723 81.6475 89.347C80.9793 89.4123 80.4289 89.4576 79.9835 89.4844C80.1052 89.4488 80.2334 89.4131 80.368 89.3767C79.795 89.4093 79.5623 89.5752 78.7761 89.4973C79.1999 89.3775 79.7963 89.2411 80.5615 89.0852C80.15 89.1268 79.7829 89.1609 79.4575 89.1872C79.5509 89.1527 79.6486 89.1173 79.7502 89.0812C79.8617 89.0593 79.9684 89.0408 80.0644 89.0272C79.998 89.0312 79.9339 89.0348 79.8713 89.0381C80.0404 88.9783 80.2196 88.9161 80.4084 88.8514C79.9987 88.9427 79.6472 89.0116 79.3483 89.0601C79.1451 89.0656 78.9692 89.0671 78.8185 89.0642C79.1781 88.8746 79.7823 88.6292 80.549 88.3367C79.9654 88.485 79.5009 88.5816 79.1375 88.6352C79.2051 88.5728 79.2783 88.5077 79.3568 88.4393C79.628 88.3789 79.9319 88.3195 80.2575 88.2655C79.9801 88.2817 79.7333 88.2946 79.5154 88.3044C79.7183 88.1348 79.9532 87.9484 80.2232 87.7442C79.7005 87.9812 79.2491 88.1758 78.8614 88.3269L78.7678 88.3285C78.9663 88.2293 79.1742 88.1188 79.3808 88.0228C79.2104 88.0805 78.502 88.3334 78.3144 88.3227C78.5975 88.0872 78.9595 87.813 79.416 87.494C78.9767 87.679 78.5868 87.8372 78.2422 87.9675C78.4027 87.7682 78.631 87.543 78.8826 87.3122C77.9995 87.7229 77.3911 87.9038 76.9909 87.9268C77.1297 87.6837 77.4265 87.3771 77.7666 87.0598C77.3703 87.2466 77.0292 87.3864 76.7376 87.4855C76.7611 87.2184 76.9471 87.0581 77.163 86.8082C77.0337 86.8908 76.9095 86.969 76.7901 87.0431C76.7994 86.9791 76.8091 86.9133 76.8201 86.8453C76.6717 86.9572 76.5303 87.061 76.3955 87.1569C76.4505 86.9808 76.5438 86.7883 76.6617 86.5947C76.3975 86.8063 76.1684 86.9728 75.9696 87.1014C76.0004 86.9301 76.0406 86.7416 76.0894 86.5354C75.7764 86.754 75.4925 86.9405 75.235 87.0989C75.266 86.8777 75.3776 86.6148 75.5348 86.3494C75.2918 86.5471 75.0785 86.7056 74.8913 86.8306C74.9486 86.6412 75.0153 86.4582 75.0644 86.3165C74.9776 86.4105 74.8817 86.5015 74.7789 86.5891C74.815 86.3546 74.875 86.1183 74.9153 85.9442C74.6039 86.3357 74.1326 86.688 73.6521 86.9332C73.5672 86.5945 73.7066 86.0362 73.7788 85.7048C73.5477 86.0013 73.225 86.2757 72.8754 86.4984C72.8848 86.4304 72.8945 86.3624 72.9049 86.2955C72.9597 85.9378 72.8067 86.2584 71.9977 86.7348C72.0772 86.5347 72.2101 86.2963 72.4074 86.0141C72.2416 86.1266 72.0824 86.2317 71.9297 86.3298C71.9912 86.1516 72.0871 85.9459 72.2236 85.7096C71.6549 86.1421 71.1674 86.471 70.7404 86.6976C70.6722 86.4471 70.7606 86.0527 71.0831 85.4787C70.7061 85.77 70.162 86.168 69.6786 86.4363C69.7347 86.1934 69.8073 85.9646 69.82 85.8269C69.3018 86.1835 68.8623 86.4505 68.4891 86.6451C68.2024 86.3786 68.0899 86.1469 67.9552 85.8559C67.9487 85.8907 67.9417 85.9247 67.9339 85.9583C67.8739 85.8658 67.8135 85.768 67.7528 85.6642C67.7267 86.0187 67.6345 86.3119 67.4946 86.5387C67.1956 86.3078 67.1791 86.275 67.2049 86.0116C67.1723 86.0623 67.1394 86.1109 67.1064 86.1588C66.9414 85.9627 66.7778 85.7255 66.6108 85.4477C66.5962 85.6941 66.549 85.9111 66.476 86.0968C66.4912 85.8731 66.5342 85.6633 66.5568 85.5342C66.1931 86.0326 65.8136 86.3973 65.4491 86.6389C65.1496 86.3874 64.9682 85.9943 64.8462 85.7113C64.8401 85.768 64.8332 85.8399 64.8235 85.9219C64.7562 85.8209 64.6903 85.7132 64.6268 85.5983C64.6278 85.8083 64.6446 86.2311 64.5234 86.581C64.3716 86.4799 64.2201 86.3526 64.0719 86.1976C64.0713 86.165 64.0713 86.1318 64.0717 86.0978L64.0323 86.1556C63.8409 85.9482 63.6554 85.6944 63.4836 85.3919C63.4866 85.5628 63.5025 85.8749 63.4457 86.1739C63.0932 86.231 62.888 86.2027 62.8488 85.6018C62.493 86.0684 62.7397 86.3831 62.4151 86.6158C62.1469 86.4254 61.8486 86.1849 61.5165 85.885C61.51 85.9181 61.5056 85.957 61.5021 85.9998C61.4413 85.9533 61.3797 85.9053 61.3163 85.8552C61.3052 85.9946 61.3393 86.2278 61.3536 86.474C61.0166 86.2779 60.6269 86.0114 60.1762 85.6594C60.1638 85.8496 60.2376 86.2137 60.2303 86.548C59.8504 86.3173 59.4294 85.9897 58.9483 85.5624C59.1642 86.0994 59.2015 86.479 59.1184 86.7303C58.4412 86.2289 58.3657 85.8945 58.3172 86.2133C58.1861 86.1015 58.1574 86.102 58.1535 86.2898C58.1509 86.4321 58.1469 86.579 58.1363 86.7226C57.1481 86.151 57.0213 85.7047 57.0192 86.1041C57.0185 86.259 57.016 86.4189 57.0058 86.5745L56.9827 86.5578C56.9468 86.5141 56.9125 86.4698 56.8809 86.4246L56.8899 86.4885C56.6194 86.2789 56.3816 86.0314 56.2185 85.7674C56.2361 86.0613 56.3534 86.8444 56.0451 87.1669C55.7613 86.9615 55.4404 86.6972 55.0768 86.3637C55.0727 86.4453 55.0681 86.5241 55.063 86.6003C55.0193 86.566 54.9754 86.531 54.9306 86.4948C54.94 86.6385 54.9466 86.7734 54.9503 86.9002C54.7775 86.7715 54.5825 86.6062 54.362 86.3981C54.4289 86.5535 54.4806 86.7073 54.5114 86.8529C54.2933 86.7004 54.0564 86.5238 53.7986 86.3195C53.8417 86.8635 53.8463 87.2851 53.7809 87.5897C53.7073 87.5352 53.6368 87.479 53.5701 87.4216C53.615 87.5073 53.6697 87.609 53.7256 87.7182C53.3332 87.6734 52.7792 87.4842 52.0193 87.0909C52.2146 87.3062 52.3911 87.5167 52.5161 87.7059C52.2128 87.5646 51.8736 87.3949 51.4937 87.1969C51.6747 87.3636 51.8352 87.5178 51.9774 87.6611C51.8081 87.5854 51.6302 87.5039 51.4423 87.4162C51.7076 87.6302 51.9346 87.824 52.1285 88C51.6564 87.843 51.0632 87.5924 50.323 87.2517C50.935 87.7377 51.3499 88.1209 51.6124 88.4216C51.2471 88.3668 50.7762 88.2621 50.178 88.0961C50.6203 88.2822 51.9647 88.7771 51.9828 89.0724C51.7063 89.0191 51.3875 88.9473 51.0214 88.8543C51.368 88.9893 51.6798 89.114 51.9487 89.2277C51.9041 89.3026 51.3273 89.2871 51.2041 89.2837C50.6779 89.1824 50.189 89.0527 50.0087 89.0356C50.2358 89.1113 50.4411 89.1842 50.6264 89.2548C50.5513 89.2496 50.4731 89.2439 50.3918 89.2376C50.2765 89.2024 50.1564 89.1638 50.0303 89.122C50.0802 89.1548 50.1293 89.1876 50.1777 89.2203C49.8128 89.1891 49.3906 89.1473 48.9065 89.0937C48.9872 89.1113 49.0653 89.1286 49.1422 89.1459C49.7535 89.3259 50.2164 89.4925 50.5439 89.6473C50.2066 89.6628 49.7414 89.6724 49.1194 89.6755C49.8599 89.75 50.4976 89.8546 50.9059 89.962C50.5869 89.939 50.2287 89.9092 49.8279 89.872C50.1245 89.9307 50.3952 89.9865 50.6398 90.0397C50.3824 90.0539 50.1411 90.0771 49.8021 90.0842C49.8804 90.0988 49.9545 90.1144 50.0243 90.1302C49.6817 90.1588 49.1696 90.1846 48.4416 90.2064C48.6267 90.2202 48.8055 90.2357 48.9764 90.2532C48.6154 90.2712 48.2123 90.2873 47.7667 90.302C48.6406 90.4193 49.5476 90.4988 50.2893 90.7447C49.6972 90.9155 49.5128 90.9229 48.8436 90.9419C48.9667 90.9482 49.1085 90.9604 49.2572 90.977C49.1077 91.0042 48.9504 91.0312 48.7855 91.0573C48.9198 91.059 49.0554 91.0657 49.1908 91.0768L49.0629 91.0838C48.7946 91.0847 48.4963 91.0826 48.1656 91.0779C48.4939 91.1343 48.779 91.1868 49.0244 91.2356C48.784 91.272 48.5103 91.31 48.2006 91.3501C48.5095 91.3566 48.7887 91.3648 49.0418 91.3744C48.6983 91.3786 48.3069 91.379 47.8626 91.3752C48.4408 91.4361 48.9291 91.4945 49.3264 91.5523C48.7996 91.64 48.298 91.6217 47.6476 91.6286C48.3133 91.7239 48.8065 91.8082 49.1541 91.8839C49.0105 91.8871 48.8597 91.8897 48.701 91.8918C48.829 91.9098 48.9504 91.9271 49.066 91.9443C48.601 91.9972 48.0365 92.048 47.4344 92.1046C48.3321 92.1672 49.0501 92.2298 49.5929 92.2948C49.3624 92.3628 48.6421 92.466 48.3615 92.5083C47.9639 92.5603 47.5105 92.6134 47.0335 92.6708C47.8325 92.706 48.5334 92.7455 49.1733 92.8024C48.8416 92.8452 48.479 92.889 48.1017 92.9357C48.7958 92.9642 49.3842 92.9952 49.8697 93.0306C49.4501 93.1266 48.9008 93.2317 48.2233 93.348C48.6504 93.3171 49.0297 93.2932 49.364 93.276C49.1621 93.3525 48.931 93.4319 48.6693 93.5145C48.5175 93.5535 48.3536 93.5945 48.1761 93.6373C48.584 93.6055 49.0661 93.5719 49.5042 93.5507C49.105 93.6523 48.5911 93.7651 47.9642 93.8907C48.6324 93.8251 49.1827 93.7798 49.6282 93.7532C49.5064 93.7886 49.3783 93.8243 49.2437 93.861C49.3747 93.8534 49.6766 93.7951 50.0385 93.7328C50.3904 93.7193 50.6532 93.7222 50.8355 93.7403C50.4119 93.8599 49.8153 93.9962 49.0502 94.1521C49.4617 94.1107 49.8286 94.0767 50.154 94.0502C50.0608 94.0846 49.9631 94.1201 49.8614 94.1564C49.7499 94.1781 49.6432 94.1966 49.5473 94.2102C49.6138 94.2062 49.6776 94.2027 49.7403 94.1993C49.5715 94.2593 49.392 94.3214 49.2033 94.3861C49.8028 94.2524 50.1337 94.1608 50.7931 94.1734C50.4336 94.3631 49.8294 94.6082 49.0628 94.9009C49.6463 94.7524 50.1107 94.6558 50.4743 94.6023C50.174 94.8791 49.9927 94.8656 49.354 94.9721C49.6318 94.9558 49.8783 94.9428 50.0963 94.933C49.8934 95.1026 49.6585 95.2889 49.3886 95.4932C49.6122 95.3918 50.5911 94.913 50.8437 94.9089C50.6455 95.0083 50.4376 95.1187 50.231 95.2149C50.4013 95.1571 51.1095 94.904 51.2972 94.9149C51.0144 95.1504 50.6522 95.4246 50.1957 95.7434C50.635 95.5581 51.0248 95.4002 51.3695 95.27C51.2091 95.4692 50.9806 95.6945 50.7291 95.9255C51.6121 95.5145 52.2207 95.3336 52.6206 95.3107C52.482 95.5536 52.1852 95.8606 51.8452 96.1778C52.2415 95.9911 52.5824 95.8512 52.8742 95.7517C52.8505 96.019 52.6646 96.1793 52.4488 96.4294C52.578 96.3466 52.7021 96.2684 52.8216 96.1942C52.8124 96.2583 52.8024 96.3243 52.7917 96.3921C52.9399 96.2802 53.0813 96.1766 53.2163 96.0805C53.1612 96.2564 53.068 96.4491 52.9502 96.6428C53.2141 96.4313 53.4433 96.2645 53.642 96.1363C53.6114 96.3075 53.571 96.4958 53.5221 96.702C53.8355 96.4836 54.1193 96.2971 54.3767 96.1385C54.3458 96.3596 54.2342 96.6228 54.0769 96.8881C54.32 96.6902 54.533 96.532 54.7203 96.4068C54.6632 96.5964 54.5964 96.7792 54.5472 96.9206C54.634 96.8272 54.7299 96.7358 54.8329 96.6483C54.7965 96.8829 54.7367 97.1193 54.6965 97.2932C55.0077 96.9018 55.4789 96.5496 55.9594 96.3044C56.0446 96.6429 55.9051 97.2011 55.8329 97.5325C56.064 97.2363 56.3868 96.9617 56.7365 96.739C56.727 96.8072 56.7171 96.8751 56.7069 96.9419C56.6521 97.2999 56.805 96.9788 57.6139 96.5026C57.5343 96.7026 57.4015 96.9412 57.2041 97.2233C57.37 97.1108 57.5292 97.0056 57.6821 96.9078C57.6205 97.0859 57.5244 97.2918 57.388 97.528C57.9569 97.0952 58.4444 96.7666 58.8714 96.5399C58.9395 96.7904 58.8512 97.1848 58.5288 97.7586C58.9054 97.4676 59.4496 97.0694 59.9333 96.8012C59.8769 97.0441 59.8044 97.2728 59.7918 97.4104C60.3098 97.0542 60.7495 96.7867 61.1228 96.5921C61.4094 96.8587 61.5218 97.0905 61.6563 97.3814C61.6631 97.3468 61.67 97.3125 61.6777 97.2791C61.7379 97.3716 61.7982 97.4695 61.8589 97.5733C61.8852 97.2189 61.9773 96.9258 62.1172 96.6987C62.4161 96.9297 62.4325 96.9624 62.4069 97.2258C62.4393 97.1753 62.4722 97.1267 62.5054 97.0789C62.6704 97.2749 62.8338 97.5119 63.0009 97.7897C63.0153 97.5433 63.0626 97.3263 63.1358 97.1406C63.1203 97.3645 63.0776 97.5744 63.0548 97.7034C63.4186 97.2048 63.7983 96.8401 64.1626 96.5983C64.462 96.85 64.6436 97.2431 64.7656 97.5261C64.7717 97.4696 64.7784 97.3974 64.7883 97.3155C64.8556 97.4165 64.9211 97.5243 64.9847 97.6391C64.9839 97.4294 64.967 97.0067 65.0883 96.6564C65.24 96.7575 65.3915 96.885 65.5398 97.0396C65.5404 97.0727 65.5406 97.1057 65.5398 97.1396L65.5794 97.082C65.7709 97.2893 65.9563 97.543 66.1281 97.8456C66.1249 97.6746 66.109 97.3625 66.166 97.0635C66.5185 97.0063 66.7235 97.035 66.7629 97.6358C67.1187 97.1691 66.8718 96.8543 67.1967 96.6214C67.4647 96.8123 67.7631 97.0527 68.0952 97.3527C68.1017 97.3193 68.1062 97.2805 68.1094 97.2375C68.1704 97.2842 68.2321 97.3321 68.2952 97.3822C68.3063 97.2428 68.2723 97.0097 68.2582 96.7633C68.5951 96.9597 68.9846 97.2261 69.4355 97.5781C69.448 97.3878 69.3739 97.024 69.3814 96.6897C69.7612 96.9199 70.1822 97.2479 70.6635 97.6752C70.4473 97.138 70.4101 96.7584 70.4932 96.5071C71.1703 97.0087 71.2459 97.3429 71.2943 97.0239C71.4258 97.136 71.4544 97.1355 71.458 96.9478C71.4608 96.8052 71.465 96.6586 71.4756 96.515C72.4635 97.0864 72.5905 97.5325 72.5927 97.1334C72.5933 96.9786 72.5956 96.8187 72.606 96.6629L72.6292 96.6793C72.665 96.7235 72.6991 96.7679 72.7309 96.8128L72.7218 96.7491C72.9924 96.9588 73.2299 97.2061 73.393 97.4699C73.3757 97.176 73.2583 96.3929 73.5667 96.0707C73.8505 96.2762 74.1711 96.5402 74.5349 96.8739C74.5391 96.7923 74.5435 96.7133 74.5488 96.6372C74.5923 96.6717 74.6362 96.7066 74.6812 96.7426C74.6718 96.5989 74.6653 96.464 74.6615 96.3372C74.8343 96.4661 75.0292 96.6315 75.2498 96.8393C75.1827 96.6842 75.1312 96.5301 75.1002 96.3845C75.3185 96.537 75.5554 96.7138 75.813 96.9181C75.77 96.3739 75.7653 95.9523 75.8308 95.6476C75.9044 95.7022 75.9748 95.7584 76.0414 95.816C75.9965 95.7301 75.9419 95.6284 75.8861 95.5192C76.2783 95.5642 76.8326 95.7535 77.5923 96.1466C77.3971 95.9311 77.2207 95.7207 77.0957 95.5316C77.399 95.6726 77.7381 95.8423 78.1181 96.0405C77.9371 95.8741 77.7762 95.7197 77.6341 95.5762C77.8034 95.6522 77.9816 95.7336 78.1693 95.8214C77.904 95.6073 77.6771 95.4134 77.4831 95.2374C77.9553 95.3944 78.5484 95.6452 79.2887 95.9857C78.6766 95.4997 78.2615 95.1165 77.9994 94.8158C78.3646 94.8706 78.8356 94.9755 79.4336 95.1413C78.9914 94.9554 77.6468 94.4603 77.629 94.1653C77.9055 94.2184 78.2243 94.2904 78.5903 94.3831C78.2435 94.2483 77.9318 94.1237 77.6629 94.0097C77.7075 93.9351 78.2843 93.9503 78.4076 93.9537C78.9338 94.0552 79.4227 94.185 79.6029 94.2018C79.3757 94.1264 79.1705 94.0535 78.9855 93.9829C79.0602 93.9877 79.1384 93.9935 79.2198 93.9999C79.3352 94.0353 79.4551 94.0738 79.5814 94.1157C79.5315 94.0827 79.4823 94.05 79.4339 94.0172C79.7989 94.0483 80.2211 94.0903 80.7053 94.1438C80.6246 94.1261 80.5463 94.1089 80.4694 94.0918C79.858 93.9115 79.3955 93.7451 79.0676 93.5901C79.4049 93.5749 79.8704 93.565 80.4922 93.5621C79.7516 93.4877 79.114 93.3829 78.7057 93.2753C79.0246 93.2986 79.3829 93.3283 79.7839 93.3654C79.4873 93.307 79.2166 93.2509 78.972 93.198C79.2293 93.1835 79.4705 93.1602 79.8097 93.1534C79.7311 93.1384 79.6573 93.1231 79.5876 93.1072C79.9301 93.0788 80.442 93.0528 81.1699 93.031C80.9852 93.0174 80.8061 93.0014 80.6353 92.9842C80.9962 92.9662 81.3992 92.95 81.8451 92.9354C80.9708 92.8181 80.0639 92.7385 79.3223 92.493C79.5183 92.4364 79.7445 92.3821 79.9992 92.3293Z" fill="#040606"/>
<path fill-rule="evenodd" clip-rule="evenodd" d="M37.7196 62.6446C37.6525 62.6429 37.5823 62.6415 37.5091 62.6405C37.8519 62.5696 38.109 62.5152 38.4056 62.3248C38.4556 62.1203 38.0824 61.9607 37.0469 61.9546C37.2551 61.9206 37.5379 61.832 37.783 61.7214C37.4733 61.7173 37.0734 61.7338 36.5647 61.7775C37.1271 61.539 37.5071 61.3462 37.7393 61.1871C37.207 60.8778 36.7857 60.9537 36.1791 60.9731C36.6437 60.8049 36.9875 60.6601 37.2294 60.5333C37.1281 60.5341 37.0218 60.536 36.9101 60.5386C36.9995 60.5071 37.0843 60.4763 37.165 60.4462C36.8357 60.3852 36.4365 60.3305 36.0106 60.269C36.6399 60.1407 37.1428 60.0198 37.5222 59.9011C37.209 59.7254 36.5047 59.597 35.7067 59.4373C36.3265 59.3451 36.8256 59.2534 37.2075 59.1579C36.9725 59.107 36.7158 59.0552 36.4483 58.9995C36.9356 58.9304 37.3486 58.8612 37.6888 58.7898C37.3899 58.6622 36.9993 58.5262 36.518 58.3784C36.8198 58.4079 37.0877 58.4294 37.3236 58.4424C37.1118 58.2862 36.856 58.1235 36.5527 57.9531C36.7423 57.9727 37.4395 58.3062 37.9684 58.3559C37.7028 58.1364 37.1481 57.8822 36.3148 57.5764C36.7876 57.6486 37.1766 57.6952 37.4911 57.7182C37.404 57.6698 37.3125 57.6208 37.2164 57.5716C37.3088 57.5777 37.5236 57.6533 37.7807 57.733C38.0289 57.7394 38.2136 57.725 38.3413 57.6909C38.0385 57.5281 37.6136 57.3469 37.0691 57.1431C37.3602 57.1894 37.6199 57.2261 37.8497 57.2531C37.6489 57.1097 37.42 56.9542 37.1678 56.7873C37.7152 57.0143 38.115 57.1297 38.3963 57.1565C38.1572 56.8724 37.6791 56.4896 37.0492 56.0224C37.4655 56.222 37.796 56.3488 38.0539 56.4151C37.8536 56.0516 37.5911 55.6243 37.2556 55.1237C37.7796 55.5884 38.2032 55.9362 38.5416 56.1615C38.3327 55.9898 38.0942 55.7224 37.8592 55.5079C38.184 55.7201 38.4092 55.865 38.6352 55.9395C38.425 55.5924 38.1552 55.1885 37.8141 54.7182C38.1302 54.9783 38.4106 55.1998 38.6583 55.3817C38.5377 55.0896 38.3684 54.7612 38.1824 54.4255C38.8196 55.0063 39.2548 55.2533 39.5372 55.2723C39.4303 54.9141 39.2097 54.4665 38.9581 54.0049C39.2442 54.2692 39.4897 54.4652 39.6987 54.6028C39.6718 54.2037 39.5347 53.9711 39.3733 53.6054C39.4674 53.7242 39.5578 53.8365 39.6447 53.9428C39.6358 53.8472 39.6263 53.7491 39.616 53.648C39.7246 53.8097 39.8282 53.9593 39.9269 54.098C39.8814 53.8364 39.8083 53.552 39.7179 53.2666C39.9118 53.5732 40.0795 53.8135 40.2243 53.9983C40.1962 53.7432 40.1605 53.4624 40.1183 53.156C40.347 53.4709 40.5538 53.7391 40.7412 53.9666C40.7109 53.6364 40.6224 53.2474 40.5015 52.8565C40.6801 53.1429 40.8363 53.3717 40.9728 53.5517C40.9252 53.2704 40.8712 52.999 40.8312 52.7893C40.8958 52.9263 40.967 53.059 41.0426 53.1861C41.0081 52.8367 40.957 52.4851 40.9218 52.2264C41.1561 52.8 41.5013 53.3091 41.8488 53.6575C41.8957 53.1476 41.7759 52.3176 41.7125 51.8245C41.8865 52.2591 42.1242 52.6574 42.3787 52.9771C42.3696 52.8758 42.36 52.7743 42.3501 52.6747C42.2978 52.1415 42.4178 52.6155 43.0055 53.2975C42.9418 53.001 42.8392 52.6491 42.6894 52.2345C42.8104 52.3967 42.9265 52.5478 43.0378 52.6885C42.9877 52.4241 42.9122 52.1202 42.8072 51.7717C43.224 52.3972 43.5797 52.8706 43.8889 53.1934C43.9272 52.8158 43.8499 52.2291 43.6008 51.3827C43.8773 51.8038 44.2757 52.3786 44.6261 52.7614C44.5771 52.4002 44.5173 52.0607 44.5031 51.8549C44.8815 52.3685 45.2011 52.7516 45.4713 53.0283C45.6627 52.6185 45.733 52.2676 45.8166 51.827C45.8224 51.8787 45.8287 51.9294 45.8354 51.9791C45.8743 51.8386 45.9129 51.6897 45.9517 51.5321C45.9837 52.0614 46.0599 52.4964 46.1669 52.8307C46.3685 52.4738 46.3788 52.4239 46.3506 52.0309C46.3755 52.1054 46.4005 52.1771 46.4255 52.2473C46.5342 51.9476 46.6402 51.5866 46.7469 51.1646C46.7667 51.5325 46.8083 51.8555 46.8668 52.1306C46.8474 51.7961 46.8093 51.4839 46.7883 51.2915C47.0634 52.0235 47.3447 52.5547 47.6103 52.9023C47.8114 52.5143 47.924 51.9192 47.999 51.4911C48.0054 51.5754 48.0131 51.683 48.0231 51.8052C48.0665 51.6515 48.1086 51.4878 48.149 51.3133C48.1564 51.6275 48.1608 52.2609 48.2595 52.7801C48.3624 52.6228 48.4642 52.4263 48.5626 52.1889C48.5617 52.1398 48.5605 52.0903 48.5588 52.0398L48.5887 52.1247C48.7155 51.8067 48.8363 51.4199 48.9456 50.9608C48.9499 51.2166 48.9509 51.684 49.0023 52.1297C49.2526 52.2015 49.3958 52.1509 49.4004 51.2506C49.6688 51.9351 49.5071 52.4152 49.7445 52.7512C49.926 52.4558 50.1267 52.0845 50.3489 51.6228C50.3547 51.6726 50.3594 51.7303 50.3634 51.7944C50.4043 51.7222 50.446 51.6484 50.4885 51.5709C50.5017 51.779 50.4867 52.1292 50.4861 52.4979C50.7157 52.1917 50.9797 51.7778 51.2834 51.234C51.2995 51.5179 51.2614 52.0655 51.2795 52.5655C51.538 52.206 51.8216 51.6994 52.1439 51.0416C52.0124 51.8536 52.0008 52.4227 52.069 52.796C52.5262 52.0193 52.5666 51.5164 52.6129 51.9915C52.701 51.8189 52.7211 51.8186 52.7309 52.0993C52.7383 52.3125 52.7469 52.5321 52.7598 52.7465C53.4332 51.8532 53.5054 51.1805 53.5223 51.778C53.5286 52.0099 53.5365 52.2491 53.5496 52.4815L53.5654 52.4557C53.5889 52.3888 53.6113 52.321 53.6318 52.2524L53.628 52.3482C53.8104 52.0242 53.968 51.6449 54.0728 51.2438C54.0716 51.6842 54.0193 52.8605 54.2487 53.3309C54.4406 53.0125 54.6561 52.6049 54.899 52.0917C54.9051 52.214 54.9114 52.3318 54.9181 52.4454C54.9473 52.3923 54.9768 52.3384 55.0072 52.2824C55.006 52.4977 55.0064 52.7001 55.0088 52.89C55.1253 52.6905 55.2563 52.4357 55.4035 52.1159C55.3623 52.3507 55.3319 52.5832 55.3158 52.8019C55.4635 52.5656 55.6233 52.2923 55.797 51.9767C55.7875 52.7921 55.8005 53.4233 55.8582 53.8769C55.908 53.7922 55.9553 53.7055 56.0002 53.6167C55.9718 53.7471 55.9372 53.9012 55.9021 54.067C56.1765 53.9846 56.5591 53.6803 57.0789 53.0625C56.9496 53.3924 56.8335 53.7142 56.7528 54.0018C56.9607 53.7789 57.1931 53.5121 57.4528 53.2011C57.3318 53.4572 57.2247 53.6944 57.1302 53.9141C57.2464 53.7943 57.3685 53.6653 57.4974 53.5272C57.3188 53.8575 57.1666 54.1562 57.0367 54.4272C57.3629 54.1741 57.7708 53.7761 58.2786 53.238C57.8667 53.9888 57.5893 54.5781 57.4162 55.038C57.6712 54.942 57.9986 54.7674 58.4131 54.4959C58.1089 54.7912 57.1819 55.5836 57.1805 56.0258C57.373 55.9357 57.5946 55.8159 57.8488 55.6627C57.61 55.8782 57.3953 56.0765 57.2105 56.2571C57.2449 56.3674 57.6501 56.3222 57.7367 56.3125C58.1032 56.1405 58.4422 55.9276 58.5683 55.8951C58.4115 56.0169 58.2699 56.134 58.1421 56.2467C58.1948 56.2362 58.2497 56.2248 58.3065 56.2123C58.3864 56.1548 58.4694 56.0928 58.5566 56.0252C58.5227 56.0764 58.4894 56.1273 58.4565 56.178C58.7121 56.1176 59.0077 56.0387 59.3463 55.9396C59.2902 55.9692 59.2359 55.9981 59.1824 56.0267C58.4459 56.5364 58.0242 56.9679 57.8685 57.3374C58.1175 57.2874 58.4026 57.2219 58.7277 57.14C58.4586 57.269 58.2205 57.3892 58.0134 57.5012C58.4036 57.626 59.1253 57.6878 60.195 57.7039C59.5842 57.913 58.9491 58.0671 58.4366 58.4629C58.7138 58.6158 59.0748 58.7511 59.5068 58.8733C59.4123 58.8809 59.3173 58.8961 59.2225 58.9182C59.3154 58.9238 59.4114 58.9293 59.5103 58.9346C59.3573 58.9808 59.2074 59.0255 59.0633 59.0688C59.2921 59.1391 59.5782 59.212 59.9298 59.2887C59.7125 59.3107 59.5166 59.3336 59.3388 59.3576C59.5807 59.3507 59.8562 59.3364 60.1685 59.3136C58.9871 59.644 58.3435 59.9182 58.2632 60.183C58.5537 60.2932 58.9385 60.3683 59.1991 60.3761C59.0845 60.3922 58.9786 60.4088 58.8806 60.4263C58.9768 60.4532 59.0781 60.4803 59.1867 60.5084C58.9458 60.5234 58.7301 60.5411 58.5372 60.5609C58.8923 60.7649 59.5853 60.9763 60.6274 61.2164C60.0855 61.2811 59.5871 61.3348 59.2189 61.4086C59.3406 61.4251 59.4679 61.4384 59.5989 61.4488C59.1951 61.5061 58.8875 61.5598 58.6597 61.6104C58.4317 61.8097 58.7511 62.1276 60.0348 62.7103C59.3733 62.6367 58.8954 62.6137 58.5608 62.6265C58.6312 62.6368 58.7028 62.6462 58.7761 62.6546C58.431 62.6906 58.1558 62.7269 57.9399 62.7626C57.6532 63.0062 58.586 63.4955 59.0918 63.6205C56.8127 63.453 57.6889 64.2866 59.2573 64.7528C58.1438 64.6748 57.7412 64.7216 57.7158 64.8254C46.8765 63.2914 46.5158 62.7292 38.8287 63.9509C38.8061 63.8464 38.4049 63.7893 37.2898 63.8392C37.9145 63.6704 38.4324 63.4416 38.6891 63.2336C38.3394 63.2633 38.1322 63.1973 37.7544 63.2012C37.8091 63.1761 37.8605 63.1503 37.909 63.124C37.6668 63.0943 37.3056 63.0751 36.7923 63.0706C37.2507 62.9729 37.6546 62.8409 37.9443 62.7017C37.808 62.7001 37.6549 62.7032 37.4841 62.7113C37.5555 62.6954 37.6356 62.6727 37.7196 62.6446Z" fill="#040606"/>
<path fill-rule="evenodd" clip-rule="evenodd" d="M90.5393 61.5985C90.6063 61.5945 90.6764 61.5906 90.7496 61.5869C90.4044 61.5281 90.1456 61.4826 89.8424 61.3029C89.7853 61.1001 90.1527 60.9274 91.1875 60.8855C90.9781 60.8585 90.6925 60.7801 90.4435 60.678C90.753 60.6628 91.1532 60.6656 91.6631 60.6913C91.0928 60.4729 90.7062 60.2932 90.4685 60.1423C90.9898 59.8149 91.4137 59.8758 92.0206 59.874C91.5503 59.7224 91.2015 59.5894 90.9554 59.4714C91.0566 59.4685 91.1629 59.4666 91.2746 59.4655C91.1842 59.437 91.0984 59.4092 91.0169 59.382C91.3436 59.3094 91.7408 59.241 92.164 59.1647C91.5309 59.0584 91.0241 58.9549 90.6408 58.8496C90.9477 58.6633 91.647 58.5101 92.4389 58.3227C91.8164 58.2524 91.3143 58.178 90.9294 58.096C91.1624 58.0369 91.4172 57.9759 91.6825 57.9113C91.1931 57.8593 90.778 57.8044 90.4354 57.7448C90.7296 57.6069 91.1152 57.4573 91.5913 57.2929C91.2905 57.333 91.0237 57.3638 90.7882 57.385C90.9945 57.2215 91.2444 57.05 91.5418 56.869C91.3528 56.8951 90.6677 57.2528 90.1411 57.3209C90.3986 57.0925 90.9442 56.8189 91.7662 56.4843C91.2963 56.5731 90.9092 56.6333 90.5956 56.6671C90.6811 56.6155 90.7707 56.5636 90.8651 56.511C90.7728 56.5204 90.5609 56.6031 90.3066 56.6918C90.0588 56.7068 89.874 56.699 89.7449 56.6695C90.0419 56.4963 90.4604 56.3003 90.9974 56.0774C90.708 56.1341 90.4499 56.1798 90.221 56.2149C90.4167 56.0643 90.6399 55.9009 90.8862 55.7252C90.3472 55.9714 89.9517 56.1005 89.6714 56.1374C89.9004 55.8449 90.3649 55.4459 90.9781 54.9569C90.569 55.1707 90.2432 55.3092 89.9876 55.3841C90.1752 55.014 90.4225 54.5778 90.7405 54.0658C90.2331 54.5487 89.8219 54.911 89.4916 55.148C89.6941 54.969 89.9231 54.6933 90.1506 54.4709C89.8335 54.6942 89.6134 54.8469 89.3901 54.9292C89.5882 54.575 89.8437 54.1619 90.1681 53.68C89.8613 53.9511 89.5888 54.1823 89.3477 54.3725C89.458 54.0764 89.6159 53.7424 89.79 53.4006C89.1732 54.0031 88.747 54.2653 88.4654 54.2941C88.5597 53.9322 88.7647 53.4772 88.9999 53.0072C88.7231 53.2815 88.4849 53.4859 88.2807 53.6305C88.2936 53.2307 88.4225 52.9937 88.571 52.6225C88.4812 52.7442 88.3949 52.8597 88.3117 52.9689C88.3172 52.8733 88.3232 52.7747 88.3299 52.6733C88.227 52.8387 88.1289 52.9919 88.035 53.1339C88.0713 52.8712 88.1345 52.5843 88.2149 52.2957C88.0318 52.6089 87.8724 52.8551 87.7344 53.0446C87.7537 52.7886 87.7794 52.507 87.8109 52.1995C87.5933 52.5221 87.3958 52.7971 87.2164 53.0311C87.2353 52.6999 87.3103 52.3082 87.4174 51.9132C87.2489 52.2059 87.1009 52.44 86.9706 52.6245C87.0084 52.3416 87.0529 52.0688 87.0856 51.8578C87.0257 51.9967 86.9594 52.1318 86.8881 52.2616C86.9105 51.9112 86.9494 51.558 86.9755 51.2981C86.7613 51.8798 86.434 52.4004 86.0988 52.7608C86.0344 52.2531 86.1248 51.4192 86.1711 50.9243C86.0124 51.3648 85.7889 51.7709 85.5456 52.0996C85.5512 51.9979 85.5572 51.8963 85.5637 51.7961C85.5972 51.2617 85.4938 51.7395 84.9303 52.4413C84.9837 52.1428 85.0739 51.7878 85.2091 51.3682C85.0938 51.5343 84.9831 51.6894 84.8768 51.8338C84.9177 51.5682 84.9825 51.2615 85.0754 50.9098C84.6807 51.5493 84.3416 52.0348 84.0439 52.3681C83.9924 51.9923 84.0492 51.403 84.2686 50.5485C84.0069 50.979 83.6288 51.5674 83.2919 51.9621C83.3283 51.5996 83.3762 51.2583 83.3833 51.0522C83.023 51.5786 82.717 51.9724 82.4566 52.2585C82.251 51.8557 82.1686 51.5073 82.0696 51.07C82.0655 51.1217 82.061 51.1726 82.0562 51.2227C82.0124 51.0834 81.9685 50.9363 81.9243 50.7799C81.9108 51.31 81.8499 51.7477 81.7545 52.0854C81.5406 51.7356 81.5286 51.6863 81.5431 51.2925C81.5208 51.3675 81.4983 51.44 81.4758 51.5114C81.3566 51.2157 81.2382 50.8584 81.1167 50.4403C81.1098 50.8089 81.0795 51.1329 81.0306 51.4101C81.0383 51.0749 81.0657 50.7618 81.0798 50.5689C80.8305 51.31 80.5679 51.8505 80.3146 52.2072C80.0999 51.8265 79.9667 51.2355 79.8769 50.8105C79.8733 50.895 79.8694 51.0026 79.8638 51.1254C79.815 50.9732 79.767 50.8111 79.7207 50.6381C79.7242 50.9522 79.7419 51.5856 79.6615 52.1078C79.5531 51.9542 79.4445 51.7615 79.3378 51.5276C79.337 51.4784 79.3365 51.4288 79.3366 51.3782L79.3097 51.4643C79.1717 51.151 79.0375 50.7686 78.9123 50.3136C78.9167 50.5692 78.9322 51.0365 78.8965 51.4834C78.6488 51.5641 78.5038 51.5187 78.4679 50.6189C78.2236 51.3122 78.402 51.7868 78.1763 52.1306C77.9847 51.8417 77.7712 51.4776 77.533 51.0241C77.5288 51.0739 77.5262 51.1318 77.5245 51.1961C77.481 51.1255 77.4367 51.0528 77.3916 50.977C77.3857 51.1854 77.413 51.5349 77.4262 51.9036C77.1863 51.6055 76.9079 51.2009 76.5855 50.6681C76.5793 50.9525 76.6364 51.4985 76.636 51.9987C76.365 51.6485 76.0638 51.1522 75.7189 50.5057C75.8786 51.3128 75.91 51.8812 75.8549 52.2565C75.3708 51.4962 75.3128 50.9951 75.2831 51.4714C75.1891 51.3022 75.1691 51.3026 75.1689 51.5836C75.1691 51.7969 75.168 52.0164 75.1627 52.2311C74.4585 51.362 74.3628 50.6923 74.367 51.2898C74.3686 51.5219 74.3693 51.7611 74.364 51.994L74.3476 51.9689C74.3216 51.9028 74.2968 51.8358 74.2739 51.7676L74.2811 51.8636C74.0878 51.5459 73.9167 51.1724 73.7982 50.7753C73.8146 51.2152 73.9082 52.3891 73.6953 52.8673C73.4925 52.5558 73.2627 52.1558 73.0019 51.6515C73.0002 51.7738 72.9979 51.8918 72.9954 52.0055C72.9641 51.9535 72.9327 51.9006 72.9007 51.846C72.9091 52.0611 72.9157 52.2632 72.9201 52.453C72.7966 52.258 72.657 52.0079 72.4985 51.6933C72.5479 51.9264 72.5863 52.1577 72.6102 52.3758C72.4544 52.1446 72.285 51.8771 72.1007 51.5677C72.1384 52.3825 72.1476 53.0138 72.1056 53.4691C72.0531 53.3862 72.0025 53.3011 71.9548 53.2141C71.9878 53.3432 72.0275 53.4962 72.0685 53.6605C71.7915 53.5879 71.3985 53.297 70.8575 52.6975C70.9982 53.0231 71.1254 53.3405 71.2161 53.6252C71.0003 53.4097 70.7591 53.1509 70.4884 52.8492C70.6184 53.1011 70.7338 53.3343 70.836 53.5507C70.7155 53.4351 70.589 53.3102 70.4552 53.1767C70.6455 53.5008 70.808 53.7939 70.947 54.0601C70.6122 53.8187 70.1906 53.4351 69.6643 52.9149C70.1025 53.6509 70.4001 54.2304 70.5893 54.6838C70.3311 54.5969 69.9977 54.4336 69.5738 54.1769C69.8881 54.4612 70.8422 55.2208 70.859 55.6629C70.6635 55.5796 70.438 55.4675 70.1788 55.3233C70.4248 55.5301 70.6462 55.7211 70.8373 55.8949C70.8069 56.0063 70.4002 55.9755 70.3135 55.9686C69.9412 55.8097 69.5948 55.6086 69.4677 55.5805C69.6286 55.697 69.7743 55.8089 69.906 55.9172C69.8529 55.9086 69.7977 55.8989 69.7404 55.8884C69.6587 55.8337 69.5735 55.7749 69.4839 55.7102C69.5195 55.76 69.5545 55.8098 69.5892 55.8593C69.3316 55.8079 69.0335 55.7393 68.6917 55.6524C68.7489 55.68 68.8042 55.707 68.8586 55.7337C69.6125 56.2172 70.0488 56.634 70.2175 56.9976C69.967 56.9562 69.6798 56.9007 69.3516 56.8302C69.6251 56.95 69.8673 57.0617 70.0783 57.1664C69.6928 57.3049 68.9737 57.3917 67.9052 57.4452C68.5227 57.6328 69.163 57.7644 69.6889 58.1424C69.4171 58.3048 69.061 58.4524 68.6335 58.5898C68.7283 58.5942 68.8239 58.6061 68.9195 58.6246C68.8266 58.6335 68.7308 58.6425 68.6322 58.6511C68.787 58.6918 68.9382 58.7313 69.0837 58.7696C68.8577 58.8478 68.574 58.9308 68.2255 59.0198C68.4433 59.034 68.64 59.0503 68.8187 59.068C68.5766 59.0696 68.3008 59.0646 67.9877 59.053C69.1801 59.3418 69.8328 59.5933 69.9221 59.8551C69.6357 59.9754 69.254 60.0639 68.9935 60.0811C69.1088 60.093 69.2152 60.1061 69.3138 60.1199C69.2186 60.1501 69.1181 60.1809 69.0105 60.2127C69.2518 60.2193 69.468 60.2296 69.6617 60.2426C69.3137 60.4586 68.6287 60.6941 67.5957 60.9707C68.1394 61.0162 68.6395 61.0526 69.01 61.1134C68.8887 61.1343 68.7622 61.152 68.6314 61.1668C69.0373 61.2102 69.3462 61.2532 69.5757 61.2957C69.8104 61.4867 69.5024 61.8159 68.2398 62.4427C68.8985 62.3461 69.375 62.3065 69.7099 62.3076C69.6403 62.3203 69.5687 62.3324 69.4961 62.3432C69.842 62.3673 70.1185 62.3937 70.3353 62.4219C70.6302 62.6553 69.7153 63.177 69.214 63.3195C71.4858 63.0728 70.6393 63.9362 69.0884 64.4569C70.1984 64.3402 70.6025 64.373 70.6314 64.4759C81.4105 62.5643 81.7513 61.9901 89.4762 62.9427C89.4952 62.8373 89.8944 62.7665 91.0104 62.7772C90.3803 62.6305 89.8548 62.42 89.5909 62.2211C89.9414 62.2384 90.1461 62.1652 90.5239 62.1559C90.4682 62.1327 90.4161 62.1086 90.3666 62.084C90.6075 62.0461 90.9681 62.0143 91.4808 61.9916C91.0192 61.9101 90.6111 61.7921 90.3166 61.6632C90.4528 61.6567 90.6058 61.6546 90.7771 61.6569C90.7048 61.6435 90.6242 61.6234 90.5393 61.5985Z" fill="#040606"/>
<mask id="mask0_5_89" style="mask-type:luminance" maskUnits="userSpaceOnUse" x="55" y="66" width="19" height="27">
<path d="M55.33 66.7745L73.4005 66.4591L73.8535 92.4148L55.7831 92.7303L55.33 66.7745Z" fill="white"/>
</mask>
<g mask="url(#mask0_5_89)">
<mask id="mask1_5_89" style="mask-type:luminance" maskUnits="userSpaceOnUse" x="55" y="66" width="19" height="27">
<path fill-rule="evenodd" clip-rule="evenodd" d="M68.5568 91.3639C69.3337 90.7137 69.6255 89.9231 70.8241 89.2586C72.9105 88.1015 74.1358 87.9118 73.6197 85.5309C73.3192 84.1436 72.9199 83.6441 71.807 81.7328C70.9186 80.2071 70.2787 78.7973 69.5726 76.8811C68.542 74.084 67.6261 70.4239 66.349 68.3259C64.9732 66.0657 63.7829 66.0525 62.4717 68.3569C61.2567 70.4927 60.4653 74.2088 59.5277 77.0564C58.889 78.9961 58.2986 80.4274 57.464 81.9831C56.4186 83.9322 56.0369 84.4452 55.7848 85.8422C55.3523 88.2397 56.5833 88.3865 58.709 89.47C60.1266 90.1927 60.3285 91.1277 61.4774 91.7821C63.445 92.9027 66.7813 92.8494 68.5568 91.3639Z" fill="white"/>
</mask>
<g mask="url(#mask1_5_89)">
<path d="M54.9676 66.2062L55.4361 93.0473L74.2196 92.7194L73.7511 65.8784L54.9676 66.2062Z" fill="url(#paint0_linear_5_89)"/>
</g>
</g>
<path fill-rule="evenodd" clip-rule="evenodd" d="M59.4866 89.9722C59.4415 89.081 59.6088 88.7243 60.322 87.9395C59.4848 88.6217 59.3015 88.9082 59.1534 89.7298C59.2672 89.8057 59.3807 89.8856 59.4866 89.9722Z" fill="#BD844D"/>
<path fill-rule="evenodd" clip-rule="evenodd" d="M70.0613 89.7877C70.0752 88.8955 69.8958 88.5448 69.1554 87.7853C70.016 88.4379 70.2092 88.7179 70.3858 89.5338C70.2748 89.6136 70.1641 89.6974 70.0613 89.7877Z" fill="#BD844D"/>
<path fill-rule="evenodd" clip-rule="evenodd" d="M69.1871 90.7197C65.8126 91.9189 63.5303 91.9589 60.3958 90.8731C62.5795 93.2499 67.0802 93.1809 69.1871 90.7197Z" fill="#BD844D"/>
<path fill-rule="evenodd" clip-rule="evenodd" d="M34.8639 62.9964C36.2024 61.8128 37.563 60.6661 38.9015 59.4827C38.9248 60.8135 38.948 62.1441 38.9712 63.475C37.6095 63.3279 36.2256 63.1439 34.8639 62.9964Z" fill="#040606"/>
<path fill-rule="evenodd" clip-rule="evenodd" d="M57.0224 75.6272C58.3067 74.0306 59.0254 72.2471 59.1279 69.8598C59.2561 66.883 59.2422 66.2422 55.5828 65.0988C52.4885 64.1318 42.0902 62.7473 40.3818 65.5918C39.5693 66.9446 39.599 68.4107 39.9646 70.6564C40.4969 73.9255 40.8066 76.4889 44.4751 77.8362C46.6916 78.65 49.1703 78.7826 51.7078 78.4104C53.8257 78.0993 55.4727 77.5537 57.0224 75.6272ZM72.0266 75.3653C70.6873 73.8145 69.9068 72.0572 69.7208 69.6749C69.4889 66.7043 69.4806 66.0635 73.0976 64.7931C76.1565 63.7187 86.5001 61.9721 88.3065 64.7553C89.1659 66.0789 89.1875 67.5452 88.9005 69.8022C88.4826 73.0879 88.2624 75.6606 84.6433 77.135C82.4565 78.0257 79.9838 78.2447 77.435 77.9613C75.3077 77.7243 73.6426 77.2366 72.0266 75.3653ZM61.2495 71.5653C59.5446 75.6927 58.2157 77.632 55.1004 79.0615C52.9217 80.0612 50.6512 80.2784 48.3896 80.0786C42.6486 79.5719 40.1851 78.4583 38.5544 73.1567C37.6387 70.3438 37.7677 67.1857 35.428 67.0264C35.2386 65.6829 35.0492 64.3395 34.8598 62.996C45.5593 60.6056 56.3683 63.6758 62.9624 64.5004C64.0258 64.6335 64.5258 64.6553 65.7654 64.4417C72.3214 63.3124 82.9932 59.9593 93.7348 61.9684C93.5923 63.3177 93.45 64.6668 93.3076 66.0161C90.9748 66.257 91.2139 69.4086 90.3968 72.2518C88.9523 77.607 86.5292 78.806 80.8094 79.5127C78.5562 79.7913 76.2793 79.6535 74.0671 78.7304C70.904 77.4106 69.5082 75.5188 67.6601 71.4534C66.6626 69.2589 66.066 68.1368 64.4282 68.1607C62.7081 68.1859 62.1876 69.2949 61.2495 71.5653Z" fill="#151516"/>
<path d="M54.6673 77.8108C51.9088 79.1299 47.2479 79.0742 44.4039 78.0301C40.6842 76.664 40.3241 74.1653 39.7601 70.6892C39.4731 68.9272 39.2399 67.0911 40.2041 65.4857C42.0356 62.4363 52.757 63.9996 55.6444 64.9019C59.0314 65.9603 59.4833 66.4167 59.3351 69.8682C59.1997 73.0154 57.6329 76.3928 54.6673 77.8108ZM58.9212 69.851C59.0609 66.6037 58.7235 66.2963 55.5215 65.2956C52.8512 64.4613 42.2391 62.9016 40.5597 65.6978C39.6575 67.2 39.901 68.9771 40.1692 70.6238C40.7011 73.9024 41.0283 76.3503 44.5463 77.6423C47.2856 78.6481 51.8321 78.7088 54.4889 77.4383C57.3116 76.0888 58.7927 72.8423 58.9212 69.851ZM74.6217 77.0869C77.321 78.2639 81.8628 78.0445 84.5652 76.9437C88.036 75.5298 88.2776 73.072 88.6948 69.7768C88.9051 68.1217 89.0867 66.3373 88.1328 64.8674C86.3568 62.1316 75.8056 64.0607 73.1661 64.9877C70.0006 66.0995 69.6744 66.4184 69.9273 69.6589C70.1602 72.6439 71.7537 75.8366 74.6217 77.0869ZM69.5144 69.6905C69.2455 66.2463 69.6814 65.7745 73.0294 64.5985C75.8836 63.5959 86.5437 61.6594 88.4806 64.643C89.5002 66.2138 89.3312 68.0569 89.1059 69.8279C88.6637 73.3215 88.3908 75.8313 84.7211 77.3263C81.9153 78.4691 77.2591 78.6874 74.4564 77.4654C71.4432 76.1517 69.7593 72.8311 69.5144 69.6905Z" fill="#040606"/>
<path fill-rule="evenodd" clip-rule="evenodd" d="M62.7201 66.6737C62.5158 66.1782 62.1667 65.7275 61.5572 65.1967C61.5053 66.1959 61.5928 66.933 61.7735 67.5794C62.0532 68.5793 63.3455 68.1898 62.7201 66.6737ZM66.0196 66.6161C66.2065 66.1138 66.5397 65.6512 67.1305 65.0994C67.2173 66.0962 67.1553 66.8359 66.9975 67.4882C66.7528 68.4973 65.4476 68.1531 66.0196 66.6161Z" fill="#191A1A"/>
<path fill-rule="evenodd" clip-rule="evenodd" d="M85.2009 77.4801C87.1377 76.3398 87.7183 75.8379 88.6558 73.9076C88.091 75.6907 87.3369 76.5862 85.2009 77.4801ZM80.9543 78.5021C74.6877 78.7087 71.3248 77.7555 69.3689 71.0278C70.8853 77.9895 74.0715 78.9855 80.9543 78.5021ZM93.7348 61.9684C88.5433 61.4255 84.2806 61.4465 79.1456 62.2634C84.5076 61.7515 88.7326 61.9559 93.6847 62.4449C93.7021 62.2741 93.7206 62.107 93.7348 61.9684Z" fill="#28292A"/>
<path fill-rule="evenodd" clip-rule="evenodd" d="M43.9297 78.2005C41.9544 77.1285 41.3566 76.6472 40.3521 74.7508C40.9789 76.513 41.7638 77.3817 43.9297 78.2005ZM48.2094 79.0736C54.4793 79.0615 57.8069 77.9915 59.5268 71.1996C58.2544 78.21 55.1051 79.3166 48.2094 79.0736ZM34.8597 62.9961C40.0291 62.2724 44.2899 62.1446 49.4504 62.7817C44.0737 62.4573 39.8584 62.809 34.9264 63.4706C34.9029 63.3004 34.8789 63.1341 34.8597 62.9961Z" fill="#28292A"/>
<defs>
<linearGradient id="paint0_linear_5_89" x1="55.2042" y1="79.7577" x2="73.9876" y2="79.4299" gradientUnits="userSpaceOnUse">
<stop stop-color="#CA976E"/>
<stop offset="0.015625" stop-color="#CA976E"/>
<stop offset="0.0195312" stop-color="#CD996F"/>
<stop offset="0.0234375" stop-color="#CF9A70"/>
<stop offset="0.0273438" stop-color="#D69E72"/>
<stop offset="0.03125" stop-color="#DEA274"/>
<stop offset="0.0351562" stop-color="#E5A575"/>
<stop offset="0.0390625" stop-color="#EDA876"/>
<stop offset="0.0429688" stop-color="#F3AB78"/>
<stop offset="0.046875" stop-color="#F9AD7A"/>
<stop offset="0.0507812" stop-color="#F9AD7A"/>
<stop offset="0.0546875" stop-color="#F9AD7B"/>
<stop offset="0.0585938" stop-color="#F9AD7A"/>
<stop offset="0.0625" stop-color="#F9AD79"/>
<stop offset="0.0664062" stop-color="#F9AC79"/>
<stop offset="0.0703125" stop-color="#F9AC78"/>
<stop offset="0.078125" stop-color="#F9AC78"/>
<stop offset="0.0820312" stop-color="#F9AC77"/>
<stop offset="0.0859375" stop-color="#F9AB77"/>
<stop offset="0.0898438" stop-color="#F9AB76"/>
<stop offset="0.09375" stop-color="#F9AB76"/>
<stop offset="0.0976562" stop-color="#F8AA75"/>
<stop offset="0.101562" stop-color="#F7AA75"/>
<stop offset="0.105469" stop-color="#F6A974"/>
<stop offset="0.109375" stop-color="#F5A974"/>
<stop offset="0.113281" stop-color="#F5A973"/>
<stop offset="0.117188" stop-color="#F4A873"/>
<stop offset="0.121094" stop-color="#F3A872"/>
<stop offset="0.125" stop-color="#F3A772"/>
<stop offset="0.128906" stop-color="#F2A772"/>
<stop offset="0.132812" stop-color="#F2A772"/>
<stop offset="0.136719" stop-color="#F1A671"/>
<stop offset="0.140625" stop-color="#F0A671"/>
<stop offset="0.144531" stop-color="#F0A670"/>
<stop offset="0.148438" stop-color="#EFA670"/>
<stop offset="0.152344" stop-color="#EFA56F"/>
<stop offset="0.15625" stop-color="#EEA46F"/>
<stop offset="0.160156" stop-color="#EDA46E"/>
<stop offset="0.164063" stop-color="#ECA36D"/>
<stop offset="0.167969" stop-color="#EBA36D"/>
<stop offset="0.171875" stop-color="#EBA26D"/>
<stop offset="0.175781" stop-color="#EAA26C"/>
<stop offset="0.179688" stop-color="#EAA16C"/>
<stop offset="0.183594" stop-color="#E9A16C"/>
<stop offset="0.1875" stop-color="#E8A16B"/>
<stop offset="0.191406" stop-color="#E8A06B"/>
<stop offset="0.195312" stop-color="#E7A06A"/>
<stop offset="0.199219" stop-color="#E7A06A"/>
<stop offset="0.203125" stop-color="#E6A06A"/>
<stop offset="0.207031" stop-color="#E69F69"/>
<stop offset="0.210937" stop-color="#E59F68"/>
<stop offset="0.214844" stop-color="#E59E68"/>
<stop offset="0.21875" stop-color="#E49E67"/>
<stop offset="0.222656" stop-color="#E39E67"/>
<stop offset="0.226562" stop-color="#E39D67"/>
<stop offset="0.230469" stop-color="#E29D67"/>
<stop offset="0.234375" stop-color="#E29C66"/>
<stop offset="0.242188" stop-color="#E19C66"/>
<stop offset="0.246094" stop-color="#E09B65"/>
<stop offset="0.25" stop-color="#DF9A65"/>
<stop offset="0.253906" stop-color="#DE9A64"/>
<stop offset="0.257812" stop-color="#DD9963"/>
<stop offset="0.261719" stop-color="#DD9963"/>
<stop offset="0.265625" stop-color="#DD9963"/>
<stop offset="0.273438" stop-color="#DC9962"/>
<stop offset="0.277344" stop-color="#DB9862"/>
<stop offset="0.28125" stop-color="#DA9761"/>
<stop offset="0.285156" stop-color="#DA9761"/>
<stop offset="0.289062" stop-color="#D99760"/>
<stop offset="0.292969" stop-color="#D99660"/>
<stop offset="0.296875" stop-color="#D8965F"/>
<stop offset="0.300781" stop-color="#D7965F"/>
<stop offset="0.304688" stop-color="#D7955E"/>
<stop offset="0.308594" stop-color="#D6955E"/>
<stop offset="0.3125" stop-color="#D5955E"/>
<stop offset="0.316406" stop-color="#D5945D"/>
<stop offset="0.320313" stop-color="#D5945D"/>
<stop offset="0.324219" stop-color="#D4935C"/>
<stop offset="0.328125" stop-color="#D3935C"/>
<stop offset="0.332031" stop-color="#D3925B"/>
<stop offset="0.335938" stop-color="#D2925B"/>
<stop offset="0.339844" stop-color="#D1925A"/>
<stop offset="0.34375" stop-color="#D0915A"/>
<stop offset="0.351563" stop-color="#D0915A"/>
<stop offset="0.355469" stop-color="#CE9059"/>
<stop offset="0.359375" stop-color="#CE8F58"/>
<stop offset="0.363281" stop-color="#CD8F58"/>
<stop offset="0.367188" stop-color="#CC8E57"/>
<stop offset="0.375" stop-color="#CC8E57"/>
<stop offset="0.382812" stop-color="#CB8D56"/>
<stop offset="0.386719" stop-color="#CA8C56"/>
<stop offset="0.390625" stop-color="#C98C55"/>
<stop offset="0.394531" stop-color="#C88B55"/>
<stop offset="0.398437" stop-color="#C88B54"/>
<stop offset="0.402344" stop-color="#C88B54"/>
<stop offset="0.40625" stop-color="#C78A53"/>
<stop offset="0.414062" stop-color="#C68A53"/>
<stop offset="0.417969" stop-color="#C58953"/>
<stop offset="0.421875" stop-color="#C58952"/>
<stop offset="0.425781" stop-color="#C48852"/>
<stop offset="0.429687" stop-color="#C38851"/>
<stop offset="0.4375" stop-color="#C38851"/>
<stop offset="0.5" stop-color="#C38851"/>
<stop offset="0.5625" stop-color="#C38851"/>
<stop offset="0.570312" stop-color="#C38851"/>
<stop offset="0.578125" stop-color="#C48952"/>
<stop offset="0.582031" stop-color="#C58953"/>
<stop offset="0.585938" stop-color="#C68A53"/>
<stop offset="0.59375" stop-color="#C68A53"/>
<stop offset="0.601562" stop-color="#C78B54"/>
<stop offset="0.605469" stop-color="#C88B55"/>
<stop offset="0.609375" stop-color="#C98C56"/>
<stop offset="0.617188" stop-color="#C98C56"/>
<stop offset="0.621094" stop-color="#CA8D57"/>
<stop offset="0.625" stop-color="#CA8E57"/>
<stop offset="0.632812" stop-color="#CA8E57"/>
<stop offset="0.636719" stop-color="#CB8F58"/>
<stop offset="0.640625" stop-color="#CC8F59"/>
<stop offset="0.644531" stop-color="#CD9059"/>
<stop offset="0.648438" stop-color="#CD905A"/>
<stop offset="0.652344" stop-color="#CE915A"/>
<stop offset="0.65625" stop-color="#CE915B"/>
<stop offset="0.660156" stop-color="#CF925B"/>
<stop offset="0.664062" stop-color="#D0925C"/>
<stop offset="0.667969" stop-color="#D1935C"/>
<stop offset="0.671875" stop-color="#D1935D"/>
<stop offset="0.675781" stop-color="#D2945D"/>
<stop offset="0.679688" stop-color="#D3945E"/>
<stop offset="0.683594" stop-color="#D3945E"/>
<stop offset="0.6875" stop-color="#D4955F"/>
<stop offset="0.691406" stop-color="#D4955F"/>
<stop offset="0.695312" stop-color="#D59560"/>
<stop offset="0.699219" stop-color="#D59661"/>
<stop offset="0.703125" stop-color="#D69761"/>
<stop offset="0.707031" stop-color="#D69761"/>
<stop offset="0.710938" stop-color="#D79762"/>
<stop offset="0.714844" stop-color="#D79762"/>
<stop offset="0.71875" stop-color="#D89863"/>
<stop offset="0.722656" stop-color="#D89863"/>
<stop offset="0.726562" stop-color="#D89964"/>
<stop offset="0.730469" stop-color="#D99964"/>
<stop offset="0.734375" stop-color="#D99965"/>
<stop offset="0.738281" stop-color="#DA9965"/>
<stop offset="0.742187" stop-color="#DB9A65"/>
<stop offset="0.75" stop-color="#DB9A66"/>
<stop offset="0.753906" stop-color="#DC9B66"/>
<stop offset="0.757813" stop-color="#DD9B66"/>
<stop offset="0.761719" stop-color="#DD9C67"/>
<stop offset="0.765625" stop-color="#DD9C68"/>
<stop offset="0.769531" stop-color="#DE9D68"/>
<stop offset="0.773438" stop-color="#DF9D69"/>
<stop offset="0.777344" stop-color="#E09E69"/>
<stop offset="0.78125" stop-color="#E09E6A"/>
<stop offset="0.789062" stop-color="#E19E6A"/>
<stop offset="0.792969" stop-color="#E19F6B"/>
<stop offset="0.796875" stop-color="#E29F6B"/>
<stop offset="0.800781" stop-color="#E2A06C"/>
<stop offset="0.804688" stop-color="#E3A06C"/>
<stop offset="0.808594" stop-color="#E4A16D"/>
<stop offset="0.8125" stop-color="#E4A16D"/>
<stop offset="0.816406" stop-color="#E5A16D"/>
<stop offset="0.820312" stop-color="#E6A26E"/>
<stop offset="0.824219" stop-color="#E6A36E"/>
<stop offset="0.828125" stop-color="#E7A36F"/>
<stop offset="0.832031" stop-color="#E7A36F"/>
<stop offset="0.835938" stop-color="#E8A46F"/>
<stop offset="0.839844" stop-color="#E8A470"/>
<stop offset="0.84375" stop-color="#E9A471"/>
<stop offset="0.847656" stop-color="#E9A571"/>
<stop offset="0.851562" stop-color="#EAA571"/>
<stop offset="0.855469" stop-color="#EBA672"/>
<stop offset="0.859375" stop-color="#EBA672"/>
<stop offset="0.863281" stop-color="#ECA773"/>
<stop offset="0.867188" stop-color="#EDA873"/>
<stop offset="0.871094" stop-color="#EEA874"/>
<stop offset="0.875" stop-color="#EFA974"/>
<stop offset="0.878906" stop-color="#EFA975"/>
<stop offset="0.882812" stop-color="#F0AA75"/>
<stop offset="0.886719" stop-color="#F0AA75"/>
<stop offset="0.890625" stop-color="#F0AA76"/>
<stop offset="0.894531" stop-color="#F1AA76"/>
<stop offset="0.898438" stop-color="#F1AB77"/>
<stop offset="0.902344" stop-color="#F2AB77"/>
<stop offset="0.90625" stop-color="#F3AB78"/>
<stop offset="0.910156" stop-color="#F3AB78"/>
<stop offset="0.914062" stop-color="#F4AC78"/>
<stop offset="0.917969" stop-color="#F4AC79"/>
<stop offset="0.921875" stop-color="#F5AC79"/>
<stop offset="0.925781" stop-color="#F6AD7A"/>
<stop offset="0.929688" stop-color="#F6AD7A"/>
<stop offset="0.933594" stop-color="#F7AE7A"/>
<stop offset="0.9375" stop-color="#F8AE7A"/>
<stop offset="0.941406" stop-color="#F6AD7A"/>
<stop offset="0.945312" stop-color="#F4AC7A"/>
<stop offset="0.949219" stop-color="#EEAA79"/>
<stop offset="0.953125" stop-color="#E9A878"/>
<stop offset="0.957031" stop-color="#E4A577"/>
<stop offset="0.960938" stop-color="#DEA375"/>
<stop offset="0.964844" stop-color="#DAA074"/>
<stop offset="0.96875" stop-color="#D69E72"/>
<stop offset="0.972656" stop-color="#D29C71"/>
<stop offset="0.976562" stop-color="#CD996F"/>
<stop offset="0.980469" stop-color="#CB986F"/>
<stop offset="0.984375" stop-color="#CA976E"/>
<stop offset="1" stop-color="#CA976E"/>
</linearGradient>
</defs>
</svg>
