<svg width="80" height="80" viewBox="0 0 80 80" fill="none" xmlns="http://www.w3.org/2000/svg">
<g clip-path="url(#clip0_7_42)">
<path d="M38.98 35.9293C38.48 34.7094 37.71 33.7094 36.68 32.9595C35.65 32.2095 34.37 31.8196 32.88 31.8196C31.98 31.8196 31.2 31.9395 30.57 32.1695C30.01 32.3795 29.4 32.6895 28.78 33.0995V25.4999L25.46 24V47.0187L25.55 47.0587C27.47 47.8186 29.44 48.1986 31.4 48.1986C33.02 48.1986 34.47 47.8686 35.73 47.2287C36.99 46.5787 37.98 45.6188 38.68 44.3588C39.37 43.1089 39.73 41.589 39.73 39.8391C39.73 38.4592 39.48 37.1392 38.98 35.9293ZM36.37 39.9691C36.37 41.389 35.96 42.6089 35.15 43.5889C34.35 44.5588 33.22 45.0588 31.81 45.0588C30.8 45.0588 29.78 44.9088 28.77 44.6088V36.3593C29.91 35.3793 31.04 34.8794 32.12 34.8794C32.99 34.8794 33.76 35.0994 34.4 35.5393C35.04 35.9793 35.53 36.5893 35.87 37.3592C36.21 38.1392 36.37 39.0191 36.37 39.9691Z" fill="black"/>
<path d="M41.65 50.0185C41.65 50.7684 41.46 51.4384 41.09 52.0184C40.72 52.5983 40.17 53.0283 39.46 53.3083L39.26 53.3883L41.73 55.8281L41.82 55.7881C43.93 54.7782 45 52.9183 45 50.2685V32.1095H41.65V50.0185Z" fill="black"/>
<path d="M44.63 26.0799C44.25 25.7499 43.78 25.58 43.24 25.58C42.69 25.58 42.23 25.7799 41.87 26.1699C41.52 26.5599 41.34 27.0099 41.34 27.5298C41.34 28.0898 41.54 28.5598 41.94 28.9198C42.33 29.2797 42.8 29.4697 43.31 29.4697C43.83 29.4697 44.29 29.2997 44.65 28.9598C45.02 28.6198 45.21 28.1398 45.21 27.5298C45.21 26.8999 45.02 26.4099 44.63 26.0799Z" fill="black"/>
<path d="M54.43 38.9492L52.6 37.9292C52.02 37.6092 51.54 37.2793 51.18 36.9493C50.84 36.6393 50.67 36.3093 50.67 35.9593C50.67 35.5194 50.85 35.2094 51.23 35.0194C51.64 34.8194 52.09 34.7094 52.56 34.7094C53.61 34.7094 55.06 35.2594 56.86 36.3493L57.08 36.4793V33.1095L57 33.0695C56.13 32.6395 55.36 32.3196 54.71 32.1196C54.05 31.9196 53.25 31.8196 52.31 31.8196C50.88 31.8196 49.66 32.1796 48.69 32.8995C47.7 33.6295 47.2 34.6594 47.2 35.9693C47.2 36.8993 47.47 37.7392 47.99 38.4592C48.51 39.1692 49.36 39.8791 50.51 40.5591L52.39 41.649C52.87 41.929 53.25 42.169 53.53 42.379C53.79 42.569 54 42.789 54.16 43.0189C54.31 43.2389 54.38 43.4989 54.38 43.7889C54.38 44.2189 54.15 44.5689 53.67 44.8388C53.18 45.1188 52.67 45.2688 52.18 45.2688C51.69 45.2688 50.96 45.0688 50.02 44.6788C49.07 44.2889 48.16 43.8089 47.33 43.2589L47.11 43.1089V46.7687L47.2 46.8087C47.39 46.8887 47.75 47.0387 48.29 47.2687C48.83 47.4987 49.28 47.6787 49.63 47.7887C49.98 47.8987 50.39 47.9987 50.85 48.0687C51.31 48.1486 51.81 48.1786 52.36 48.1786C53.89 48.1786 55.2 47.7787 56.25 46.9887C57.31 46.1888 57.85 45.0688 57.85 43.6589C57.85 41.859 56.7 40.2691 54.43 38.9492Z" fill="black"/>
<path d="M66.58 38.9492L64.75 37.9292C64.17 37.6092 63.69 37.2793 63.33 36.9493C62.99 36.6393 62.82 36.3093 62.82 35.9593C62.82 35.5194 63 35.2094 63.38 35.0194C63.79 34.8194 64.24 34.7094 64.71 34.7094C65.76 34.7094 67.21 35.2594 69.01 36.3493L69.23 36.4793V33.1095L69.15 33.0695C68.28 32.6395 67.51 32.3196 66.86 32.1196C66.2 31.9196 65.4 31.8196 64.46 31.8196C63.03 31.8196 61.81 32.1796 60.84 32.8995C59.85 33.6295 59.35 34.6594 59.35 35.9693C59.35 36.8993 59.62 37.7392 60.14 38.4592C60.66 39.1692 61.51 39.8791 62.66 40.5591L64.54 41.649C65.02 41.929 65.4 42.169 65.68 42.379C65.94 42.569 66.15 42.789 66.31 43.0189C66.46 43.2389 66.53 43.4989 66.53 43.7889C66.53 44.2189 66.3 44.5689 65.82 44.8388C65.33 45.1188 64.82 45.2688 64.33 45.2688C63.84 45.2688 63.11 45.0688 62.17 44.6788C61.22 44.2889 60.31 43.8089 59.48 43.2589L59.26 43.1089V46.7687L59.35 46.8087C59.54 46.8887 59.9 47.0387 60.44 47.2687C60.98 47.4987 61.43 47.6787 61.78 47.7887C62.13 47.8987 62.54 47.9987 63 48.0687C63.46 48.1486 63.96 48.1786 64.51 48.1786C66.04 48.1786 67.35 47.7787 68.4 46.9887C69.46 46.1888 70 45.0688 70 43.6589C70 41.859 68.85 40.2691 66.58 38.9492Z" fill="black"/>
<path d="M22.25 29.4397C22.25 28.2498 22.54 26.1199 22.63 25.4999L22.65 25.3899L19.61 24.02L19.57 24.19C19.13 25.9699 18.9 27.7398 18.9 29.4397C18.9 31.1296 19.12 32.8795 19.55 34.6494L19.59 34.8194L22.64 33.4395L22.62 33.3295C22.37 32.0096 22.25 30.7096 22.25 29.4397Z" fill="#FEB031"/>
<path d="M18.2 25.3899L15.15 24.02L15.11 24.19C14.67 25.9699 14.45 27.7398 14.45 29.4497C14.45 31.1396 14.67 32.8895 15.1 34.6594L15.14 34.8294L18.19 33.4495L18.17 33.3395C17.92 32.0096 17.8 30.7096 17.8 29.4397C17.8 28.2498 18.09 26.1199 18.18 25.4999L18.2 25.3899Z" fill="#FEB031"/>
<path d="M13.75 25.3899L10.7 24.02L10.66 24.19C10.22 25.9699 10 27.7398 10 29.4397C10 31.1296 10.22 32.8795 10.65 34.6494L10.69 34.8194L13.74 33.4395L13.72 33.3295C13.47 32.0196 13.35 30.7096 13.35 29.4497C13.35 28.2598 13.64 26.1299 13.73 25.5099L13.75 25.3899Z" fill="#FEB031"/>
</g>
<defs>
<clipPath id="clip0_7_42">
<rect width="60" height="31.8182" fill="white" transform="translate(10 24)"/>
</clipPath>
</defs>
</svg>
