<svg width="80" height="80" viewBox="0 0 80 80" fill="none" xmlns="http://www.w3.org/2000/svg">
<path d="M10 33.3332C10 44.379 18.9543 53.3332 30 53.3332C36.4492 53.3332 42.1854 50.2808 45.8428 45.5416L69.8142 17.4563C71.1992 15.8335 70.0462 13.3333 67.9128 13.3333H30C18.9543 13.3333 10 22.2876 10 33.3332Z" fill="#475569"/>
<path d="M70 46.6666C70 35.621 61.0456 26.6666 50 26.6666C43.5508 26.6666 37.8146 29.7192 34.1572 34.4582L10.1857 62.5436C8.80072 64.1664 9.95386 66.6666 12.0873 66.6666H50C61.0456 66.6666 70 57.7122 70 46.6666Z" fill="#64748B"/>
<path fill-rule="evenodd" clip-rule="evenodd" d="M59.7776 29.2154C56.8866 27.5922 53.5514 26.6666 50 26.6666C43.5508 26.6666 37.8146 29.719 34.1572 34.4582L20.2224 50.7844C23.1134 52.4076 26.4486 53.3332 30 53.3332C36.4492 53.3332 42.1854 50.2808 45.8428 45.5416L59.7776 29.2154Z" fill="#334155"/>
</svg>
