<svg width="80" height="80" viewBox="0 0 80 80" fill="none" xmlns="http://www.w3.org/2000/svg">
<path fill-rule="evenodd" clip-rule="evenodd" d="M45.0715 30.4891C46.6423 31.449 47.1376 33.5006 46.1776 35.0715C44.8023 37.322 44.4545 39.6549 44.5844 42.2667C44.6507 43.5986 44.8392 44.9656 45.0726 46.4328C45.1283 46.7831 45.1876 47.1452 45.2482 47.5149C45.4317 48.6335 45.6266 49.8224 45.767 50.9703C46.1439 54.0522 46.2476 57.6108 44.6102 61.0598C42.9425 64.5725 39.7489 67.412 34.7127 69.7012C33.0367 70.463 31.0606 69.7219 30.2988 68.046C29.537 66.3701 30.278 64.3939 31.954 63.6321C36.0845 61.7546 37.8075 59.8442 38.5877 58.2006C39.3983 56.4933 39.4811 54.4895 39.1496 51.7796C39.0272 50.7785 38.8644 49.7854 38.6876 48.7066C38.6228 48.3108 38.556 47.9035 38.4886 47.4799C38.2467 45.9589 38.0108 44.3024 37.926 42.5979C37.7538 39.1367 38.1977 35.3447 40.4891 31.5952C41.449 30.0243 43.5006 29.5291 45.0715 30.4891Z" fill="#064E3B"/>
<path fill-rule="evenodd" clip-rule="evenodd" d="M66.6667 9.99998C66.6667 9.99998 66.704 12.5485 66.6635 13.4783C66.3033 21.7635 64.0828 26.9647 60.0237 31.0238C59.9367 31.1108 59.845 31.1929 59.749 31.2697C55.7287 34.4859 50.3298 36.3032 43.5085 36.6622C42.6141 36.7093 41.7383 36.3944 41.0787 35.7886C40.419 35.1827 40.0308 34.3369 40.0018 33.4417C39.8268 28.0556 41.2878 22.7429 44.1922 18.2036C44.2903 18.0504 44.4007 17.9054 44.5224 17.7702C46.2425 15.859 48.4224 13.964 51.5044 12.5224C54.5686 11.0892 58.3567 10.1822 63.21 10.0024C64.14 9.96797 66.6667 9.99998 66.6667 9.99998Z" fill="#065F46"/>
<path fill-rule="evenodd" clip-rule="evenodd" d="M20 66.6666C20 64.8257 21.4924 63.3333 23.3333 63.3333H56.6667C58.5076 63.3333 60 64.8257 60 66.6666C60 68.5076 58.5076 70 56.6667 70H23.3333C21.4924 70 20 68.5076 20 66.6666Z" fill="#022C22"/>
<path fill-rule="evenodd" clip-rule="evenodd" d="M12.7474 25.3853C22.7489 23.5993 29.0605 25.3163 33.6272 28.6376C38.1741 31.9444 40.7799 37.4655 42.4956 42.6126C42.7979 43.5197 42.6963 44.5129 42.2164 45.3398C41.7365 46.1668 40.9246 46.7478 39.987 46.9353C33.1092 48.3109 27.1618 48.4954 21.7972 45.6254C16.756 43.0858 12.645 37.8535 10.1444 29.6373C9.86698 28.7257 9.16666 25.8334 9.16666 25.8334C9.16666 25.8334 11.8094 25.5528 12.7474 25.3853Z" fill="#047857"/>
</svg>
