<svg width="80" height="80" viewBox="0 0 80 80" fill="none" xmlns="http://www.w3.org/2000/svg">
<path d="M10 40.9202C10 24.4559 23.4182 11.1088 39.9706 11.1088C56.5226 11.1088 69.9409 24.4559 69.9409 40.9202C69.9409 57.3848 56.5226 70.732 39.9706 70.732C23.4182 70.732 10 57.3848 10 40.9202Z" fill="#0284C7"/>
<path d="M36.2715 51.6157L42.6566 44.7756L51.7215 48.3813L50.9388 57.4497L41.3901 59.4484L36.2715 51.6157Z" fill="#16A34A"/>
<path d="M17.2374 21.6894L37.3066 9.60786C39.1788 8.48094 41.5385 8.96578 42.5767 10.6909L47.3787 18.6674C48.4173 20.3927 47.7413 22.7048 45.8691 23.8317L25.7999 35.9133C23.9277 37.0402 21.5684 36.5553 20.5298 34.8302L15.7279 26.8537C14.6894 25.1287 15.3652 22.8166 17.2374 21.6894Z" fill="#16A34A"/>
<path d="M13.356 27.4175L26.1912 36.5854C26.8589 37.0624 27.1929 37.3007 27.5425 37.3559C27.8499 37.4044 28.165 37.3554 28.4433 37.2164C28.76 37.0584 29.0063 36.7301 29.4985 36.0734L32.2109 32.4572C32.3501 32.2715 32.4198 32.1787 32.5016 32.0985C32.574 32.0275 32.6539 31.9641 32.7394 31.9092C32.8359 31.8472 32.9418 31.8002 33.1538 31.7056L44.7335 26.5592C45.2136 26.3461 45.4533 26.2393 45.6345 26.0726C45.7947 25.9254 45.9207 25.7448 46.0039 25.5438C46.0979 25.3165 46.1151 25.0544 46.1502 24.5305L46.9983 11.8126M44.5574 45.4284L47.9579 46.8857L52.3879 48.7842C53.2962 49.1734 53.7506 49.3685 53.9915 49.6917C54.2023 49.9754 54.3062 50.3246 54.2844 50.6776C54.2595 51.0799 53.9852 51.4912 53.4369 52.3135L49.7582 57.8319C49.4986 58.2214 49.3684 58.4164 49.1969 58.5577C49.0446 58.6825 48.8696 58.7762 48.6814 58.8334C48.4688 58.8979 48.2344 58.8979 47.766 58.8979H41.7935C41.1731 58.8979 40.8628 58.8979 40.5987 58.794C40.3655 58.7026 40.1591 58.5537 39.9983 58.3615C39.8163 58.1441 39.7181 57.8494 39.5219 57.2606L37.3882 50.8594C37.2724 50.5118 37.2146 50.3382 37.1994 50.1619C37.1858 50.0054 37.1968 49.8477 37.2325 49.6945C37.2727 49.5222 37.3542 49.3585 37.5181 49.031L39.1389 45.7894C39.4681 45.1307 39.6329 44.8012 39.8865 44.5968C40.1099 44.4168 40.3808 44.3047 40.6661 44.2738C40.9899 44.2393 41.3392 44.3556 42.0378 44.5886L44.5574 45.4284ZM70 40.9384C70 57.4695 56.5988 70.8708 40.0677 70.8708C23.5366 70.8708 10.1353 57.4695 10.1353 40.9384C10.1353 24.4073 23.5366 11.0061 40.0677 11.0061C56.5988 11.0061 70 24.4073 70 40.9384Z" stroke="#1E293B" stroke-width="5" stroke-miterlimit="10" stroke-linecap="round" stroke-linejoin="round"/>
</svg>
